<?xml version="1.0" encoding="UTF-8" standalone="no"?>
<svg
   xmlns:dc="http://purl.org/dc/elements/1.1/"
   xmlns:cc="http://creativecommons.org/ns#"
   xmlns:rdf="http://www.w3.org/1999/02/22-rdf-syntax-ns#"
   xmlns:svg="http://www.w3.org/2000/svg"
   xmlns="http://www.w3.org/2000/svg"
   viewBox="0 0 765 825.90002"
   height="825.90002"
   width="765"
   xml:space="preserve"
   version="1.1"
   id="svg2"><metadata
     id="metadata8"><rdf:RDF><cc:Work
         rdf:about=""><dc:format>image/svg+xml</dc:format><dc:type
           rdf:resource="http://purl.org/dc/dcmitype/StillImage" /><dc:title></dc:title></cc:Work></rdf:RDF></metadata><defs
     id="defs6"><clipPath
       id="clipPath18"
       clipPathUnits="userSpaceOnUse"><path
         id="path20"
         d="m 0,660.72 612,0 L 612,0 0,0 0,660.72 Z" /></clipPath></defs><g
     transform="matrix(1.25,0,0,-1.25,0,825.9)"
     id="g10"><path
       id="path12"
       style="fill:#b91c32;fill-opacity:1;fill-rule:nonzero;stroke:none"
       d="m 0,0 612,0 0,659.998 -612,0 L 0,0 Z" /><g
       id="g14"><g
         clip-path="url(#clipPath18)"
         id="g16"><g
           transform="translate(107.0876,304.0695)"
           id="g22"><path
             id="path24"
             style="fill:#ffffff;fill-opacity:1;fill-rule:nonzero;stroke:none"
             d="m 0,0 0,-106.479 c 2.72,2.996 2.918,3.242 3.997,4.363 39.58,42.827 73.348,67.667 118.691,69.069 36.377,1.125 68.567,-20.864 99.696,-42.131 24.011,-16.403 46.69,-31.896 67.925,-33.677 47.589,-3.986 77.977,21.244 103.006,50.683 2.755,3.107 1.314,1.512 3.947,4.721 L 397.262,0 0,0 Z" /></g><g
           transform="translate(146.429,336.3075)"
           id="g26"><path
             id="path28"
             style="fill:#ffffff;fill-opacity:1;fill-rule:nonzero;stroke:none"
             d="m 0,0 c -0.85,0.44 -3.426,1.772 -3.426,8.267 0,5.978 7.116,9.009 21.149,9.009 16.41,0 24.731,-3.328 24.731,-9.893 0,-6.389 -7.739,-9.628 -23.003,-9.628 C 6.947,-2.245 1.972,-1.024 0,0 M -21.224,64.423 C -28.733,60.549 -32.54,52.962 -32.54,41.873 l 0,-2.8 34.294,0 0,2.8 c 0,2.232 0,9.022 18.696,9.022 11.566,0 16.221,-1.491 18.091,-2.74 2.352,-1.578 3.546,-5.186 3.546,-10.721 l 0,-7.508 c -6.389,4.191 -17.286,6.25 -33.041,6.25 -30.749,0 -46.341,-9.688 -46.341,-28.793 0,-18.929 15.262,-28.527 45.359,-28.527 16.007,0 27.384,2.713 34.513,8.235 -0.214,-1.82 -0.839,-7.127 -0.839,-7.127 l 33.85,0 0,57.21 c 0,12.663 -4.236,21.437 -12.59,26.077 -7.933,4.403 -22.36,6.543 -44.109,6.543 -19.986,0 -33.107,-1.757 -40.113,-5.371" /></g><g
           transform="translate(269.571,440.4591)"
           id="g30"><path
             id="path32"
             style="fill:#ffffff;fill-opacity:1;fill-rule:nonzero;stroke:none"
             d="m 0,0 -30.716,0 0,-124.188 33.501,0 L 2.785,0 0,0 Z" /></g><g
           transform="translate(327.4962,423.4648)"
           id="g34"><path
             id="path36"
             style="fill:#ffffff;fill-opacity:1;fill-rule:nonzero;stroke:none"
             d="m 0,0 -30.716,0 0,-18.471 -15.068,0 0,-20.747 15.068,0 0,-41.682 c 0,-18.183 13.609,-27.402 40.448,-27.402 26.706,0 41.133,7.276 42.886,21.623 0.343,2.857 0.514,6.295 0.514,10.224 l 0.02,7.002 -29.864,0 c 0,0 0.369,-5.918 0.385,-6.158 -0.015,-7.747 -3.428,-11.205 -11.068,-11.205 -6.885,0 -9.821,2.633 -9.821,8.802 l 0,38.796 45.572,0 0,20.747 -45.572,0 L 2.784,0 0,0 Z" /></g><g
           transform="translate(429.3242,336.3075)"
           id="g38"><path
             id="path40"
             style="fill:#ffffff;fill-opacity:1;fill-rule:nonzero;stroke:none"
             d="m 0,0 c -0.848,0.44 -3.425,1.772 -3.425,8.267 0,5.978 7.114,9.009 21.148,9.009 16.41,0 24.731,-3.328 24.731,-9.893 0,-6.389 -7.738,-9.628 -23.004,-9.628 C 6.948,-2.245 1.972,-1.024 0,0 m -21.225,64.423 c -7.506,-3.874 -11.314,-11.461 -11.314,-22.55 l 0,-2.8 34.293,0 0,2.8 c 0,2.232 0,9.022 18.697,9.022 11.566,0 16.22,-1.491 18.09,-2.74 2.351,-1.578 3.547,-5.186 3.547,-10.721 l 0,-7.508 c -6.389,4.191 -17.286,6.25 -33.041,6.25 -30.75,0 -46.34,-9.688 -46.34,-28.793 0,-18.929 15.26,-28.527 45.357,-28.527 16.008,0 27.385,2.713 34.513,8.235 -0.214,-1.82 -0.84,-7.127 -0.84,-7.127 l 33.851,0 0,57.21 c 0,12.663 -4.235,21.437 -12.589,26.077 -7.933,4.403 -22.36,6.543 -44.11,6.543 -19.986,0 -33.106,-1.757 -40.114,-5.371" /></g><g
           transform="translate(500.3931,232.2316)"
           id="g42"><path
             id="path44"
             style="fill:#ffffff;fill-opacity:1;fill-rule:nonzero;stroke:none"
             d="m 0,0 c -9.482,-10.378 -20.967,-21.187 -34.288,-29.504 -21.208,-13.243 -43.926,-18.642 -69.454,-16.503 -23.583,1.978 -47.21,18.118 -72.223,35.206 -29.946,20.457 -60.91,41.611 -94.375,40.575 -44.708,-1.382 -78.08,-27.957 -118.978,-73.455 -0.456,-0.531 -1.261,-1.361 -3.987,-4.438 l 0,-43.655 397.262,0 0,96.233 C 1.42,1.554 0.633,0.69 0,0" /></g><g
           transform="translate(118.4828,118.2643)"
           id="g46"><path
             id="path48"
             style="fill:#ffffff;fill-opacity:1;fill-rule:nonzero;stroke:none"
             d="M 0,0 C 4.679,0 5.425,0.622 5.425,4.597 5.425,7.662 5.094,8.78 4.017,9.36 3.272,9.691 2.774,9.774 0.538,9.774 l -6.502,0 L -5.964,0 0,0 Z m -11.265,14.164 11.182,0 c 5.467,0 6.171,-0.124 7.993,-1.284 2.071,-1.325 2.899,-3.685 2.899,-8.365 0,-5.302 -1.367,-7.828 -4.804,-8.697 C 5.053,-4.473 5.053,-4.473 0.207,-4.555 l -6.171,0 0,-8.905 -5.301,0 0,27.624 z" /></g><g
           transform="translate(138.346,109.4433)"
           id="g50"><path
             id="path52"
             style="fill:#ffffff;fill-opacity:1;fill-rule:nonzero;stroke:none"
             d="m 0,0 12.88,0 0,-4.639 -18.181,0 0,27.624 5.301,0 L 0,0 Z" /></g><g
           transform="translate(166.7039,128.3704)"
           id="g54"><path
             id="path56"
             style="fill:#ffffff;fill-opacity:1;fill-rule:nonzero;stroke:none"
             d="m 0,0 -4.721,-14.331 9.484,0 L 0,0 Z m -5.964,-18.265 -1.698,-5.301 -5.55,0 9.195,27.624 7.827,0 9.36,-27.624 -5.425,0 -1.781,5.301 -11.928,0 z" /></g><g
           transform="translate(208.8325,104.8045)"
           id="g58"><path
             id="path60"
             style="fill:#ffffff;fill-opacity:1;fill-rule:nonzero;stroke:none"
             d="m 0,0 -8.904,0 -7.911,15.158 c -0.496,0.994 -1.035,2.195 -2.402,5.302 l -1.201,2.608 -0.166,0 c 0.166,-4.803 0.166,-4.803 0.166,-7.206 l 0,-15.862 -5.218,0 0,27.624 8.863,0 7.206,-13.998 c 0.828,-1.699 2.278,-4.68 4.307,-9.028 l 0.166,0 C -5.26,9.319 -5.26,9.319 -5.26,11.72 l 0,15.904 5.26,0 L 0,0 Z" /></g><g
           transform="translate(239.4357,104.8045)"
           id="g62"><path
             id="path64"
             style="fill:#ffffff;fill-opacity:1;fill-rule:nonzero;stroke:none"
             d="m 0,0 -8.904,0 -7.911,15.158 c -0.497,0.994 -1.035,2.195 -2.402,5.302 l -1.201,2.608 -0.166,0 c 0.166,-4.803 0.166,-4.803 0.166,-7.206 l 0,-15.862 -5.218,0 0,27.624 8.863,0 7.206,-13.998 c 0.828,-1.699 2.278,-4.68 4.307,-9.028 l 0.166,0 C -5.26,9.319 -5.26,9.319 -5.26,11.72 l 0,15.904 5.26,0 L 0,0 Z" /></g><path
           id="path66"
           style="fill:#ffffff;fill-opacity:1;fill-rule:nonzero;stroke:none"
           d="m 249.703,104.805 -5.301,0 0,27.624 5.301,0 0,-27.624 z" /><g
           transform="translate(280.2556,104.8045)"
           id="g68"><path
             id="path70"
             style="fill:#ffffff;fill-opacity:1;fill-rule:nonzero;stroke:none"
             d="m 0,0 -8.905,0 -7.91,15.158 c -0.497,0.994 -1.035,2.195 -2.402,5.302 l -1.201,2.608 -0.166,0 c 0.166,-4.803 0.166,-4.803 0.166,-7.206 l 0,-15.862 -5.218,0 0,27.624 8.863,0 7.206,-13.998 c 0.828,-1.699 2.278,-4.68 4.307,-9.028 l 0.166,0 C -5.26,9.319 -5.26,9.319 -5.26,11.72 l 0,15.904 5.26,0 L 0,0 Z" /></g><g
           transform="translate(308.5762,119.4659)"
           id="g72"><path
             id="path74"
             style="fill:#ffffff;fill-opacity:1;fill-rule:nonzero;stroke:none"
             d="m 0,0 c 0.083,-1.408 0.083,-2.402 0.083,-4.763 0,-4.804 -0.455,-6.544 -2.029,-8.076 -1.657,-1.657 -3.811,-2.07 -10.271,-2.07 -4.018,0 -5.716,0.248 -7.414,1.034 -3.313,1.533 -4.431,4.142 -4.431,10.354 0,7.248 0.083,8.821 0.621,10.892 0.787,2.9 2.651,4.681 5.591,5.426 1.16,0.291 3.065,0.415 6.254,0.415 5.674,0 7.082,-0.208 8.945,-1.326 C -0.787,10.768 -0.083,8.822 0,4.68 l -5.342,0 c -0.166,3.685 -0.829,4.1 -6.544,4.1 -3.976,0 -5.384,-0.456 -6.13,-1.988 -0.538,-1.159 -0.662,-2.443 -0.662,-7.455 0,-5.218 0.124,-6.75 0.621,-7.827 0.704,-1.533 2.236,-1.988 6.544,-1.988 3.023,0 4.555,0.289 5.259,0.994 0.704,0.704 1.077,2.195 1.077,4.431 0,0.124 -0.042,0.621 -0.083,1.118 l -6.916,0 0,3.935 L 0,0 Z" /></g><g
           transform="translate(333.6333,116.4424)"
           id="g76"><path
             id="path78"
             style="fill:#ffffff;fill-opacity:1;fill-rule:nonzero;stroke:none"
             d="m 0,0 -7.91,0 0,4.307 7.91,0 0,8.117 4.722,0 0,-8.117 7.91,0 0,-4.307 -7.91,0 0,-8.117 L 0,-8.117 0,0 Z" /></g><g
           transform="translate(377.2875,109.3606)"
           id="g80"><path
             id="path82"
             style="fill:#ffffff;fill-opacity:1;fill-rule:nonzero;stroke:none"
             d="m 0,0 c 2.526,0 3.934,0.497 4.763,1.657 0.91,1.283 1.159,2.94 1.159,7.661 0,4.804 -0.207,6.378 -1.076,7.58 -0.788,1.118 -2.071,1.573 -4.515,1.573 l -7.786,0 L -7.455,0 0,0 Z m -12.756,23.068 13.625,0 c 3.811,0 6.213,-0.745 7.787,-2.361 1.988,-2.029 2.65,-4.39 2.65,-9.193 0,-7.663 -0.248,-9.899 -1.283,-11.887 C 8.49,-3.272 5.715,-4.556 1.035,-4.556 l -13.791,0 0,27.624 z" /></g><g
           transform="translate(397.7849,120.8744)"
           id="g84"><path
             id="path86"
             style="fill:#ffffff;fill-opacity:1;fill-rule:nonzero;stroke:none"
             d="m 0,0 12.88,0 0,-3.894 -12.88,0 0,-7.786 13.709,0 0,-4.39 -19.01,0 0,27.624 18.886,0 0,-4.39 L 0,7.164 0,0 Z" /></g><g
           transform="translate(431.3609,124.3528)"
           id="g88"><path
             id="path90"
             style="fill:#ffffff;fill-opacity:1;fill-rule:nonzero;stroke:none"
             d="m 0,0 0,0.497 c 0,3.023 -0.87,3.645 -5.136,3.645 -5.012,0 -6.004,-0.622 -6.004,-3.77 0,-2.028 0.538,-2.94 1.945,-3.354 0.664,-0.166 0.994,-0.207 5.136,-0.414 4.764,-0.29 6.337,-0.622 7.703,-1.616 1.575,-1.201 2.112,-2.816 2.112,-6.211 0,-3.438 -0.496,-5.302 -1.697,-6.503 -1.657,-1.615 -3.77,-2.07 -9.525,-2.07 -6.337,0 -8.532,0.621 -9.898,2.733 -0.87,1.325 -1.12,2.692 -1.162,6.253 l 5.095,0 c 0,-2.07 0.124,-2.775 0.581,-3.478 0.661,-1.119 1.324,-1.242 5.631,-1.242 5.054,0 5.758,0.538 5.758,4.224 0,1.863 -0.456,2.733 -1.616,3.105 -0.663,0.208 -0.663,0.208 -5.177,0.497 -4.845,0.291 -5.88,0.456 -7.289,1.243 -2.071,1.118 -2.898,3.065 -2.898,6.75 0,3.272 0.703,5.302 2.195,6.378 1.697,1.285 3.809,1.658 8.986,1.658 5.301,0 7.496,-0.539 8.863,-2.154 C 4.638,4.97 5.095,3.313 5.095,0.994 L 5.095,0 0,0 Z" /></g><path
           id="path92"
           style="fill:#ffffff;fill-opacity:1;fill-rule:nonzero;stroke:none"
           d="m 446.387,104.805 -5.301,0 0,27.624 5.301,0 0,-27.624 z" /><g
           transform="translate(474.6818,119.4659)"
           id="g94"><path
             id="path96"
             style="fill:#ffffff;fill-opacity:1;fill-rule:nonzero;stroke:none"
             d="m 0,0 c 0.083,-1.408 0.083,-2.402 0.083,-4.763 0,-4.804 -0.455,-6.544 -2.03,-8.076 -1.656,-1.657 -3.809,-2.07 -10.27,-2.07 -4.017,0 -5.716,0.248 -7.413,1.034 -3.313,1.533 -4.431,4.142 -4.431,10.354 0,7.248 0.083,8.821 0.62,10.892 0.787,2.9 2.652,4.681 5.591,5.426 1.161,0.291 3.065,0.415 6.254,0.415 5.675,0 7.082,-0.208 8.946,-1.326 C -0.785,10.768 -0.083,8.822 0,4.68 l -5.342,0 c -0.166,3.685 -0.829,4.1 -6.544,4.1 -3.976,0 -5.384,-0.456 -6.13,-1.988 -0.537,-1.159 -0.661,-2.443 -0.661,-7.455 0,-5.218 0.124,-6.75 0.62,-7.827 0.705,-1.533 2.236,-1.988 6.543,-1.988 3.024,0 4.557,0.289 5.26,0.994 0.705,0.704 1.077,2.195 1.077,4.431 0,0.124 -0.042,0.621 -0.083,1.118 l -6.915,0 0,3.935 L 0,0 Z" /></g><g
           transform="translate(504.5565,104.8045)"
           id="g98"><path
             id="path100"
             style="fill:#ffffff;fill-opacity:1;fill-rule:nonzero;stroke:none"
             d="m 0,0 -8.905,0 -7.91,15.158 c -0.498,0.994 -1.035,2.195 -2.402,5.302 l -1.202,2.608 -0.166,0 c 0.166,-4.803 0.166,-4.803 0.166,-7.206 l 0,-15.862 -5.217,0 0,27.624 8.862,0 7.207,-13.998 c 0.827,-1.699 2.278,-4.68 4.307,-9.028 l 0.166,0 C -5.26,9.319 -5.26,9.319 -5.26,11.72 l 0,15.904 5.26,0 L 0,0 Z" /></g></g></g></g></svg>